<svg xmlns="http://www.w3.org/2000/svg" version="1.1" xmlns:xlink="http://www.w3.org/1999/xlink" xmlns:svgjs="http://svgjs.dev/svgjs" width="100%" height="100%" viewBox="0 0 1000 600"><rect width="1000" height="600" x="0" y="0" fill="#2f3c7e"/><g><circle r="166.66666666666666" cx="493.6126505533855" cy="515.8350824830835" fill="#fbeaeb" transform="matrix(0.3823259609687861,0,0,0.3823259609687862,0,102.7828622965981)"/><path d="M513.3662315595337 590.835092609886L473.8590791035572 590.835092609886L465.2740238414939 440.83509928105735L521.9512868215971 440.83509928105735L513.3662315595337 590.835092609886Z " fill="#2f3c7e" transform="matrix(0.3823259609687861,0,0,0.3823259609687862,0,102.7828622965981)"/><path d="M849.8648386848649 588.5727226899528L830.9241175505873 588.5727226899528L821.0854651836154 555.7947525048L771.655444334577 555.7947525048L761.7904854104742 588.5727226899528L743.6126544329937 588.5727226899528L785.4663868283211 458.0658927633538L808.1952521894542 458.0658927633538L849.8648386848649 588.5727226899528ZM796.4625277090545 473.0343237708593L775.9960262611822 541.2209198542587L816.7185766998791 541.2209198542587L796.4625277090545 473.0343237708593ZM943.2531164997059 488.76564493516213L943.2531164997059 588.5727226899528L928.2846854922004 588.5727226899528L926.9693576356533 573.0518539826974Q921.28714129537 582.3117620927887 913.8949987415756 586.5734243480013Q906.5028561877812 590.8350866032138 895.9013136640119 590.8350866032138L895.9013136640119 590.8350866032138Q882.8269547699341 590.8350866032138 875.4348122161397 582.8905063496695Q868.0689762194762 574.9459260961253 868.0689762194762 560.345786888453L868.0689762194762 560.345786888453L868.0689762194762 488.76564493516213L885.4839170401592 488.76564493516213L885.4839170401592 558.4517147750252Q885.4839170401592 568.6849654989612 889.0879153670982 572.9466277541737Q892.6919136940371 577.2082900093862 900.8206398474979 577.2082900093862L900.8206398474979 577.2082900093862Q915.4207790551701 577.2082900093862 925.8381756790229 559.9774950886197L925.8381756790229 559.9774950886197L925.8381756790229 488.76564493516213L943.2531164997059 488.76564493516213ZM1024.8823632770163 486.47697446477025Q1041.929012297866 486.47697446477025 1051.9781171218856 500.2089972871215Q1062.000915388774 513.9410201094728 1062.000915388774 538.5639575840337L1062.000915388774 538.5639575840337Q1062.000915388774 554.1111328484199 1057.2657351052044 565.9490835573433Q1052.5305548216352 577.7870342662668 1043.638938511377 584.3110604347403Q1034.747322201119 590.8350866032138 1022.8041452636718 590.8350866032138L1022.8041452636718 590.8350866032138Q1007.0728240993691 590.8350866032138 996.2871356756832 577.5765818092193L996.2871356756832 577.5765818092193L994.5772094621719 588.5727226899528L979.2404866548334 588.5727226899528L979.2404866548334 448.59553219621506L996.6554274755164 446.51731418287073L996.6554274755164 501.26125957235917Q1007.4674224563331 486.47697446477025 1024.8823632770163 486.47697446477025L1024.8823632770163 486.47697446477025ZM1018.6477092369831 577.0241441094695Q1030.1962878174663 577.0241441094695 1036.7203139859398 567.6327032137235Q1043.270646711544 558.2675688751085 1043.270646711544 538.5639575840337L1043.270646711544 538.5639575840337Q1043.270646711544 518.307908593209 1037.1938320142967 509.31106605442716Q1031.1433238741802 500.31422351564527 1019.9630370935301 500.31422351564527L1019.9630370935301 500.31422351564527Q1006.7045322995358 500.31422351564527 996.6554274755164 515.8350922229006L996.6554274755164 515.8350922229006L996.6554274755164 563.5814934155587Q1000.6540241594195 569.8161474555918 1006.4151601710954 573.4201457825307Q1012.2026027399025 577.0241441094695 1018.6477092369831 577.0241441094695L1018.6477092369831 577.0241441094695ZM1091.7536315038683 488.76564493516213L1109.1685723245514 488.76564493516213L1109.1685723245514 588.5727226899528L1091.7536315038683 588.5727226899528L1091.7536315038683 488.76564493516213ZM1100.2769560142933 440.83509784258746Q1105.7750264546598 440.83509784258746 1109.1685723245514 444.25495026960976Q1112.5884247515737 447.64849613950116 1112.5884247515737 452.7782747800347L1112.5884247515737 452.7782747800347Q1112.5884247515737 457.8817468634373 1109.1685723245514 461.19637306193584Q1105.7750264546598 464.5109992604344 1100.2769560142933 464.5109992604344L1100.2769560142933 464.5109992604344Q1094.9630314738433 464.5109992604344 1091.5694856039518 461.19637306193584Q1088.1496331769295 457.8817468634373 1088.1496331769295 452.7782747800347L1088.1496331769295 452.7782747800347Q1088.1496331769295 447.64849613950116 1091.5694856039518 444.25495026960976Q1094.9630314738433 440.83509784258746 1100.2769560142933 440.83509784258746L1100.2769560142933 440.83509784258746ZM1192.1394535155396 486.47697446477025Q1205.7662501093673 486.47697446477025 1213.447764791602 494.632007175362Q1221.1029729167058 502.7607333288228 1221.1029729167058 516.966274179531L1221.1029729167058 516.966274179531L1221.1029729167058 588.5727226899528L1203.6880320960227 588.5727226899528L1203.6880320960227 519.4390905498394Q1203.6880320960227 508.8375480260702 1199.7157419692508 504.470659542334Q1195.7434518424789 500.1300776157287 1187.95671093172 500.1300776157287L1187.95671093172 500.1300776157287Q1180.0121306781757 500.1300776157287 1173.9616225380596 504.65480544225056Q1167.8848078408118 509.20583982590335 1162.5971898574926 517.7291643363283L1162.5971898574926 517.7291643363283L1162.5971898574926 588.5727226899528L1145.1559424796787 588.5727226899528L1145.1559424796787 488.76564493516213L1160.1243734871841 488.76564493516213L1161.6501538007792 503.5236234856201Q1166.937771784098 495.5790432320759 1174.8034323662496 491.0280088484231Q1182.6690929484012 486.47697446477025 1192.1394535155396 486.47697446477025L1192.1394535155396 486.47697446477025ZM1314.6753966314632 519.6232364497561Q1328.1180473253744 521.9119069201479 1336.4572259358824 529.0935970168948Q1344.796404546391 536.3015936707727 1344.796404546391 551.4541705781949L1344.796404546391 551.4541705781949Q1344.796404546391 588.5727226899528 1293.077713226961 588.5727226899528L1293.077713226961 588.5727226899528L1257.090343071833 588.5727226899528L1257.090343071833 458.0658927633538L1287.9742411435582 458.0658927633538Q1312.7813245180355 458.0658927633538 1325.960909640637 466.2209254739456Q1339.1141882061079 474.3496516274064 1339.1141882061079 491.0280088484231L1339.1141882061079 491.0280088484231Q1339.1141882061079 502.39244152898965 1332.0114177807536 509.96872998270067Q1324.9086473553994 517.5450184364117 1314.6753966314632 519.6232364497561L1314.6753966314632 519.6232364497561ZM1289.8683132569859 472.27143361406206L1275.084028149397 472.27143361406206L1275.084028149397 513.3885824097231L1294.787639440472 513.3885824097231Q1306.1520721210386 513.3885824097231 1313.438988446309 507.8905119693563Q1320.752211328711 502.39244152898965 1320.752211328711 492.3433367049701L1320.752211328711 492.3433367049701Q1320.752211328711 480.97890402440356 1313.0706966464759 476.63832209779827Q1305.3891819642413 472.27143361406206 1289.8683132569859 472.27143361406206L1289.8683132569859 472.27143361406206ZM1293.077713226961 574.183035939328Q1308.9931802911801 574.183035939328 1317.4375851302125 569.4478556557585Q1325.8556834121132 564.7126753721891 1325.8556834121132 551.4541705781949L1325.8556834121132 551.4541705781949Q1325.8556834121132 538.5639575840337 1317.7006507015217 532.8817412437504Q1309.571924548061 527.1995249034671 1296.4975656539832 527.1995249034671L1296.4975656539832 527.1995249034671L1275.084028149397 527.1995249034671L1275.084028149397 574.183035939328L1293.077713226961 574.183035939328ZM1438.5529741610653 565.2651130719389Q1438.5529741610653 571.3419277691862 1440.6311921744095 574.2619556107209Q1442.7094101877537 577.2082900093862 1446.8921527715734 578.7340703229806L1446.8921527715734 578.7340703229806L1442.9198626448015 590.8350866032138Q1435.133121734043 589.8880505464997 1430.3979414504734 586.4945046766084Q1425.6627611669041 583.074652249586 1423.400397253643 575.8929621528391L1423.400397253643 575.8929621528391Q1413.3512924296238 590.8350866032138 1393.6739876956794 590.8350866032138L1393.6739876956794 590.8350866032138Q1378.8897025880906 590.8350866032138 1370.366378077666 582.5222145498362Q1361.843053567241 574.183035939328 1361.843053567241 560.740385245417L1361.843053567241 560.740385245417Q1361.843053567241 544.8249181811977 1373.3127124763314 536.3015936707727Q1384.7560648282906 527.7782691603478 1405.7750039759126 527.7782691603478L1405.7750039759126 527.7782691603478L1421.1380333403822 527.7782691603478L1421.1380333403822 520.3861266065533Q1421.1380333403822 509.7845840827841 1416.0082546998487 505.2335496991313Q1410.904782616446 500.68251531547844 1400.3032400926768 500.68251531547844L1400.3032400926768 500.68251531547844Q1389.3070992119433 500.68251531547844 1373.391632147724 505.99643985592854L1373.391632147724 505.99643985592854L1369.0510502211187 493.290372761684Q1387.5971729984321 486.47697446477025 1403.5126400626518 486.47697446477025L1403.5126400626518 486.47697446477025Q1421.1380333403822 486.47697446477025 1429.8455037507238 495.10552520371897Q1438.5529741610653 503.70776938553666 1438.5529741610653 519.6232364497561L1438.5529741610653 519.6232364497561L1438.5529741610653 565.2651130719389ZM1397.6462778224518 577.7870342662668Q1412.6147088299572 577.7870342662668 1421.1380333403822 562.2398590018806L1421.1380333403822 562.2398590018806L1421.1380333403822 539.326847740831L1408.0636744463045 539.326847740831Q1380.4154829016852 539.326847740831 1380.4154829016852 559.7933491887031L1380.4154829016852 559.7933491887031Q1380.4154829016852 568.6849654989612 1384.7560648282906 573.2359998826141Q1389.1229533120268 577.7870342662668 1397.6462778224518 577.7870342662668L1397.6462778224518 577.7870342662668ZM1474.3561984162761 448.59553219621506L1491.7711392369592 446.51731418287073L1491.7711392369592 588.5727226899528L1474.3561984162761 588.5727226899528L1474.3561984162761 448.59553219621506ZM1529.6525815055143 488.76564493516213L1549.1720468966723 488.76564493516213L1512.4217865847477 532.8817412437504L1553.3284829233612 588.5727226899528L1532.4936896756558 588.5727226899528L1492.9023211935896 534.0129232003808L1529.6525815055143 488.76564493516213ZM1638.5617280276106 565.2651130719389Q1638.5617280276106 571.3419277691862 1640.6399460409548 574.2619556107209Q1642.7444706114302 577.2082900093862 1646.900906638119 578.7340703229806L1646.900906638119 578.7340703229806L1642.9286165113467 590.8350866032138Q1635.168182157719 589.8880505464997 1630.4330018741498 586.4945046766084Q1625.6978215905801 583.074652249586 1623.4091511201887 575.8929621528391L1623.4091511201887 575.8929621528391Q1613.3863528532997 590.8350866032138 1593.6827415622251 590.8350866032138L1593.6827415622251 590.8350866032138Q1578.8984564546358 590.8350866032138 1570.3751319442108 582.5222145498362Q1561.8518074337862 574.183035939328 1561.8518074337862 560.740385245417L1561.8518074337862 560.740385245417Q1561.8518074337862 544.8249181811977 1573.3214663428766 536.3015936707727Q1584.7648186948359 527.7782691603478 1605.810064399589 527.7782691603478L1605.810064399589 527.7782691603478L1621.1467872069275 527.7782691603478L1621.1467872069275 520.3861266065533Q1621.1467872069275 509.7845840827841 1616.017008566394 505.2335496991313Q1610.9135364829913 500.68251531547844 1600.311993959222 500.68251531547844L1600.311993959222 500.68251531547844Q1589.315853078489 500.68251531547844 1573.4003860142693 505.99643985592854L1573.4003860142693 505.99643985592854L1569.059804087664 493.290372761684Q1587.6059268649774 486.47697446477025 1603.521393929197 486.47697446477025L1603.521393929197 486.47697446477025Q1621.1467872069275 486.47697446477025 1629.854257617269 495.10552520371897Q1638.5617280276106 503.70776938553666 1638.5617280276106 519.6232364497561L1638.5617280276106 519.6232364497561L1638.5617280276106 565.2651130719389ZM1597.655031688997 577.7870342662668Q1612.6234626965024 577.7870342662668 1621.1467872069275 562.2398590018806L1621.1467872069275 562.2398590018806L1621.1467872069275 539.326847740831L1608.0724283128498 539.326847740831Q1580.4242367682305 539.326847740831 1580.4242367682305 559.7933491887031L1580.4242367682305 559.7933491887031Q1580.4242367682305 568.6849654989612 1584.7648186948359 573.2359998826141Q1589.131707178572 577.7870342662668 1597.655031688997 577.7870342662668L1597.655031688997 577.7870342662668ZM1721.3484633186822 486.47697446477025Q1734.9752599125095 486.47697446477025 1742.6567745947445 494.632007175362Q1750.3119827198484 502.7607333288228 1750.3119827198484 516.966274179531L1750.3119827198484 516.966274179531L1750.3119827198484 588.5727226899528L1732.8970418991653 588.5727226899528L1732.8970418991653 519.4390905498394Q1732.8970418991653 508.8375480260702 1728.9247517723934 504.470659542334Q1724.9261550884903 500.1300776157287 1717.1657207348626 500.1300776157287L1717.1657207348626 500.1300776157287Q1709.2211404813183 500.1300776157287 1703.144325784071 504.65480544225056Q1697.0938176439545 509.20583982590335 1691.7798931035045 517.7291643363283L1691.7798931035045 517.7291643363283L1691.7798931035045 588.5727226899528L1674.3649522828214 588.5727226899528L1674.3649522828214 488.76564493516213L1689.3333832903268 488.76564493516213L1690.8328570467907 503.5236234856201Q1696.1467815872406 495.5790432320759 1704.0124421693918 491.0280088484231Q1711.8781027515433 486.47697446477025 1721.3484633186822 486.47697446477025L1721.3484633186822 486.47697446477025ZM1852.5918768449474 565.2651130719389Q1852.5918768449474 571.3419277691862 1854.6700948582916 574.2619556107209Q1856.774619428767 577.2082900093862 1860.9310554554559 578.7340703229806L1860.9310554554559 578.7340703229806L1856.9587653286835 590.8350866032138Q1849.1983309750563 589.8880505464997 1844.4631506914866 586.4945046766084Q1839.7279704079174 583.074652249586 1837.4392999375254 575.8929621528391L1837.4392999375254 575.8929621528391Q1827.416501670637 590.8350866032138 1807.712890379562 590.8350866032138L1807.712890379562 590.8350866032138Q1792.928605271973 590.8350866032138 1784.405280761548 582.5222145498362Q1775.881956251123 574.183035939328 1775.881956251123 560.740385245417L1775.881956251123 560.740385245417Q1775.881956251123 544.8249181811977 1787.3516151602134 536.3015936707727Q1798.7949675121731 527.7782691603478 1819.8402132169258 527.7782691603478L1819.8402132169258 527.7782691603478L1835.1769360242643 527.7782691603478L1835.1769360242643 520.3861266065533Q1835.1769360242643 509.7845840827841 1830.0471573837308 505.2335496991313Q1824.9436853003285 500.68251531547844 1814.3421427765588 500.68251531547844L1814.3421427765588 500.68251531547844Q1803.3460018958258 500.68251531547844 1787.4305348316066 505.99643985592854L1787.4305348316066 505.99643985592854L1783.0899529050012 493.290372761684Q1801.6360756823146 486.47697446477025 1817.5515427465339 486.47697446477025L1817.5515427465339 486.47697446477025Q1835.1769360242643 486.47697446477025 1843.8844064346058 495.10552520371897Q1852.5918768449474 503.70776938553666 1852.5918768449474 519.6232364497561L1852.5918768449474 519.6232364497561L1852.5918768449474 565.2651130719389ZM1811.6851805063343 577.7870342662668Q1826.6536115138392 577.7870342662668 1835.1769360242643 562.2398590018806L1835.1769360242643 562.2398590018806L1835.1769360242643 539.326847740831L1822.1025771301865 539.326847740831Q1794.4543855855677 539.326847740831 1794.4543855855677 559.7933491887031L1794.4543855855677 559.7933491887031Q1794.4543855855677 568.6849654989612 1798.7949675121731 573.2359998826141Q1803.1618559959093 577.7870342662668 1811.6851805063343 577.7870342662668L1811.6851805063343 577.7870342662668ZM1892.9461354838108 564.5285294722726Q1898.6283518240944 564.5285294722726 1902.4164960509497 568.3166736991282Q1906.2046402778055 572.1048179259835 1906.2046402778055 577.5765818092193L1906.2046402778055 577.5765818092193Q1906.2046402778055 583.074652249586 1902.4164960509497 586.9680227049653Q1898.6283518240944 590.8350866032138 1892.9461354838108 590.8350866032138L1892.9461354838108 590.8350866032138Q1887.4480650434443 590.8350866032138 1883.659920816589 586.9680227049653Q1879.8717765897336 583.074652249586 1879.8717765897336 577.5765818092193L1879.8717765897336 577.5765818092193Q1879.8717765897336 572.1048179259835 1883.659920816589 568.3166736991282Q1887.4480650434443 564.5285294722726 1892.9461354838108 564.5285294722726L1892.9461354838108 564.5285294722726ZM1980.4417445013214 455.8035288500929Q1992.2007755388518 455.8035288500929 2000.2505820209199 458.8287829201511Q2008.300388502988 461.85403699020935 2016.6132605563653 468.6674352871231L2016.6132605563653 468.6674352871231L2006.7746081893933 480.2423204247372Q1994.831431251946 470.56150740055085 1981.5729264579518 470.56150740055085L1981.5729264579518 470.56150740055085Q1965.289167593899 470.56150740055085 1955.3452889984037 483.08342859487885Q1945.4014104029075 495.5790432320759 1945.4014104029075 523.227234776695L1945.4014104029075 523.227234776695Q1945.4014104029075 550.1125361645168 1955.2663693270106 562.8975229301542Q1965.1050216939825 575.6825096957916 1981.3887805580353 575.6825096957916L1981.3887805580353 575.6825096957916Q1989.7279591685433 575.6825096957916 1995.9889197657071 572.8414015256499Q2002.2235738057407 570.0002933555083 2009.2474245597018 564.8968212721056L2009.2474245597018 564.8968212721056L2018.13904086996 576.2612539526722Q2012.0885327298433 582.5222145498362 2002.6181721627045 586.6786505765249Q1993.1478115955656 590.8350866032138 1980.8363428582852 590.8350866032138L1980.8363428582852 590.8350866032138Q1964.920875794066 590.8350866032138 1952.5041808282617 582.9957325781932Q1940.1137924195887 575.1300719960418 1933.195167894151 559.872268860096Q1926.2765433687136 544.640772281281 1926.2765433687136 523.227234776695L1926.2765433687136 523.227234776695Q1926.2765433687136 501.8136972721089 1933.4845400225913 486.582200693294Q1940.6662301193383 471.32439755734816 1952.9776988566186 463.56396320372056Q1965.289167593899 455.8035288500929 1980.4417445013214 455.8035288500929L1980.4417445013214 455.8035288500929ZM2087.456818909989 455.8035288500929Q2103.951030231089 455.8035288500929 2116.341418639763 463.6691894322443Q2128.758113605567 471.50854345726475 2135.6767381310046 486.66112036468684Q2142.5690560993116 501.8136972721089 2142.5690560993116 523.4113806766115L2142.5690560993116 523.4113806766115Q2142.5690560993116 544.640772281281 2135.6767381310046 559.7933491887031Q2128.758113605567 574.9459260961253 2116.341418639763 582.8905063496695Q2103.951030231089 590.8350866032138 2087.456818909989 590.8350866032138L2087.456818909989 590.8350866032138Q2070.9889141460208 590.8350866032138 2058.572219180216 583.074652249586Q2046.181830771543 575.3142178959583 2039.2632062461057 560.1616409885363Q2032.344581720668 545.0090640811143 2032.344581720668 523.5955265765281L2032.344581720668 523.5955265765281Q2032.344581720668 502.57658742890624 2039.2632062461057 487.2398646215675Q2046.181830771543 471.9031418142289 2058.67744540874 463.8533353321609Q2071.173060045937 455.8035288500929 2087.456818909989 455.8035288500929L2087.456818909989 455.8035288500929ZM2087.456818909989 470.56150740055085Q2070.41016988914 470.56150740055085 2060.9398093220007 483.451720394712Q2051.4694487548622 496.34193338887314 2051.4694487548622 523.5955265765281L2051.4694487548622 523.5955265765281Q2051.4694487548622 550.6912804213976 2061.0450355505245 563.3710409585111Q2070.594315789056 576.0771080527556 2087.456818909989 576.0771080527556L2087.456818909989 576.0771080527556Q2123.444189065117 576.0771080527556 2123.444189065117 523.4113806766115L2123.444189065117 523.4113806766115Q2123.444189065117 470.56150740055085 2087.456818909989 470.56150740055085L2087.456818909989 470.56150740055085ZM2277.8110663094794 458.0658927633538L2288.6230612902964 588.5727226899528L2271.1818139124825 588.5727226899528L2266.6307795288294 529.6723412737756Q2263.789671358688 495.00029897519516 2263.421379558855 476.4541761978817L2263.421379558855 476.4541761978817L2235.1944437573547 573.7884375823637L2218.3319406364217 573.7884375823637L2188.6055310784577 476.2437237408341Q2188.6055310784577 499.91962515868113 2186.1327147081493 530.9876691303226L2186.1327147081493 530.9876691303226L2181.792132781544 588.5727226899528L2164.7454837606947 588.5727226899528L2175.53117218438 458.0658927633538L2199.7858178591077 458.0658927633538L2227.24986350381 552.9536443346585L2253.3722747348347 458.0658927633538L2277.8110663094794 458.0658927633538Z " fill="#fbeaeb" transform="matrix(0.3823259609687861,0,0,0.3823259609687862,0,102.7828622965981)"/></g></svg>